# xmcd
#
# Track frame offsets:
#	150
#	19727
#	39942
#	65043
#	84611
#	101961
#	130563
#	154571
#	176188
#	199936
#	220857
#
# Disc length: 3367 seconds
#
# Revision: 2
# Processed by: cddbd v1.5.1PL0 Copyright (c) Steve Scherf et al.
# Submitted via: audiograbber 1.83.01
#
DISCID=960d250b
DTITLE=Ralf and Elie From R.E.G. Project - L Restazrant Bar
DYEAR=2004
DGENRE=
TTITLE0=Senses
TTITLE1=Let It Go
TTITLE2=Twisted Horizon
TTITLE3=Citizen Of The World
TTITLE4=Catwalk (Habibi)
TTITLE5=It's A Beautiful Day (The Paris Of The Middle East Mix)
TTITLE6=Calypso
TTITLE7=Vice Versa
TTITLE8=Nuit Blanche
TTITLE9=Naomi C.
TTITLE10=Mana De Carnaval
EXTD=
EXTT0=
EXTT1=
EXTT2=
EXTT3=
EXTT4=
EXTT5=
EXTT6=
EXTT7=
EXTT8=
EXTT9=
EXTT10=
PLAYORDER=
